<?xml version="1.0" standalone="no"?><!DOCTYPE svg PUBLIC "-//W3C//DTD SVG 1.1//EN" "http://www.w3.org/Graphics/SVG/1.1/DTD/svg11.dtd"><svg t="1502525741726" class="icon" style="" viewBox="0 0 1024 1024" version="1.1" xmlns="http://www.w3.org/2000/svg" p-id="3236" xmlns:xlink="http://www.w3.org/1999/xlink" width="200" height="200"><defs><style type="text/css"></style></defs><path d="M357.7 128.4H174.2c-61.2 0-110.6 49.4-110.6 110.4V827c0 61 49.5 110.4 110.6 110.4h550.9c61.2 0 110.6-49.4 110.6-110.4V716.7h-73.5v110.6c0 20.2-16.7 36.5-36.8 36.5H173.9c-20.3 0-36.8-16.4-36.8-36.5V238.5c0-20.2 16.7-36.5 36.8-36.5h183.9v-73.6h-0.1z m-23.8 642.7c-14.5 3.4-30.5-10.9-35.5-26.3-9.5-32.1-14.2-65.1-14.2-98.2 0-178.4 168.5-363.2 350.1-393.8v-6.2c0-1.9 0.2-4.1 0.5-6l0.3-2.6c1.9-13 6.3-43.1 35.9-61.8 12-7.5 24.9-11.2 38.5-11.2 16.5 0 29.9 5.7 38.3 10.4 1.6 0.8 3.2 1.9 4.7 3.1L929.7 319c19.2 14.7 31.2 38.7 31.2 64 0 25.3-12 49.3-31.8 64.5l-176.8 140c-12.8 10-28.1 15.4-43.5 15.4-13.4 0-26.5-3.9-38.8-11.7-23.6-15.1-35.5-39.2-35.5-71.8v-1.3C516.9 531.4 386.3 635.9 357.4 735c-4.6 15.9-14.4 36.1-23.5 36.1z" p-id="3237" fill="#8a8a8a"></path></svg>