<?xml version="1.0" standalone="no"?><!DOCTYPE svg PUBLIC "-//W3C//DTD SVG 1.1//EN" "http://www.w3.org/Graphics/SVG/1.1/DTD/svg11.dtd"><svg t="1502500027625" class="icon" style="" viewBox="0 0 1024 1024" version="1.1" xmlns="http://www.w3.org/2000/svg" p-id="6870" xmlns:xlink="http://www.w3.org/1999/xlink" width="200" height="200"><defs><style type="text/css"></style></defs><path d="M1006.85696 405.568a63.36 63.36 0 0 0-44.736-21.184c0-0.832 0.512-1.536 0.512-2.432v-188.992a64 64 0 0 0-64-64h-334.016l-120.64-109.76a63.808 63.808 0 0 0-43.072-16.64h-274.24a64 64 0 0 0-64 64v315.456c0 0.64 0.384 1.216 0.384 1.856a63.808 63.808 0 0 0-62.592 71.36l61.12 512a64 64 0 0 0 63.552 56.384h762.688a64 64 0 0 0 63.424-55.232l70.784-512a64.128 64.128 0 0 0-15.168-50.816z m-880.256-339.072h274.24l138.944 126.464h358.784v188.992H126.53696v-315.456z m761.216 893.12h-762.688l-61.12-512h894.656l-70.848 512z" fill="#cdcdcd" p-id="6871"></path></svg>