<?xml version="1.0" standalone="no"?><!DOCTYPE svg PUBLIC "-//W3C//DTD SVG 1.1//EN" "http://www.w3.org/Graphics/SVG/1.1/DTD/svg11.dtd"><svg t="1502499779112" class="icon" style="" viewBox="0 0 1228 1024" version="1.1" xmlns="http://www.w3.org/2000/svg" p-id="3232" xmlns:xlink="http://www.w3.org/1999/xlink" width="239.84375" height="200"><defs><style type="text/css"></style></defs><path d="M1051.306667 143.36c78.916267 0 143.36 64.375467 143.36 143.36v546.133333c0 78.848-64.375467 143.291733-143.36 143.291734H177.493333c-78.916267 0-143.36-64.375467-143.36-143.36V177.493333C34.133333 98.645333 98.5088 34.133333 177.493333 34.133333h341.8112l109.226667 109.226667H1051.306667zM177.493333 102.4c-41.233067 0-75.093333 33.860267-75.093333 75.093333v655.36c0 41.1648 33.860267 75.025067 75.093333 75.025067h873.813334c41.233067 0 75.093333-33.860267 75.093333-75.093333v-546.133334c0-41.233067-33.860267-75.093333-75.093333-75.093333H600.2688L491.042133 102.4H177.493333z" p-id="3233" fill="#cdcdcd"></path></svg>