<?xml version="1.0" standalone="no"?><!DOCTYPE svg PUBLIC "-//W3C//DTD SVG 1.1//EN" "http://www.w3.org/Graphics/SVG/1.1/DTD/svg11.dtd"><svg t="1502520791573" class="icon" style="" viewBox="0 0 1024 1024" version="1.1" xmlns="http://www.w3.org/2000/svg" p-id="19938" xmlns:xlink="http://www.w3.org/1999/xlink" width="200" height="200"><defs><style type="text/css"></style></defs><path d="M730.962455 488.611314l76.249615 0 0 42.957371-76.249615 0L730.962455 488.611314zM517.493619 693.073009l42.683125 0 0 76.726475-42.683125 0L517.493619 693.073009zM736.403375 341.637937l-53.91698 54.246485-30.185486-30.378891 53.887304-54.246485L736.403375 341.637937zM706.187189 708.935278l-53.887304-54.234205 30.185486-30.391171 53.91698 54.232159L706.187189 708.935278 706.187189 708.935278zM417.074535 626.124224l101.241822-101.94381L518.316358 318.15306l64.739467 0 0 231.81774c-4.504594 4.517897-120.166847 122.240065-120.166847 122.240065L417.074535 626.124224zM556.495912 153.409972l0 61.812811c158.701488 0 287.850917 129.986493 287.850917 289.772686 0 159.76061-129.149429 289.745057-287.850917 289.745057-145.682987 0-266.343067-109.496833-285.212834-251.002684l43.782156 43.50791 43.451628-43.726897L238.487138 422.74621 118.184191 543.530111l43.451628 43.715641 47.297212-47.613414c17.359366 177.653119 166.611645 316.949652 347.561857 316.949652 192.595436 0 349.319897-157.727301 349.319897-351.572194C905.789203 311.135226 749.091348 153.409972 556.495912 153.409972z" p-id="19939" fill="#8a8a8a"></path></svg>