<?xml version="1.0" standalone="no"?><!DOCTYPE svg PUBLIC "-//W3C//DTD SVG 1.1//EN" "http://www.w3.org/Graphics/SVG/1.1/DTD/svg11.dtd"><svg t="1502520953804" class="icon" style="" viewBox="0 0 1094 1024" version="1.1" xmlns="http://www.w3.org/2000/svg" p-id="21668" xmlns:xlink="http://www.w3.org/1999/xlink" width="213.671875" height="200"><defs><style type="text/css"></style></defs><path d="M579.225 137.223c-62.154 0-121.166 13.811-173.903 38.295l-47.085-114.258c11.929-14.441 11.929-37.038-3.77-48.967-13.811-14.441-37.669-14.441-52.109 0-14.441 13.811-14.441 37.669 0 52.109 6.278 5.651 12.556 9.418 20.086 10.046 4.396 23.858-1.883 50.224-20.086 69.059-25.111 23.858-62.154 27.623-91.033 11.302l-3.77-1.883-28.253-26.367c3.77-11.929 0.626-25.741-9.418-35.788-13.811-14.441-37.669-13.811-52.109 0-14.441 13.811-14.441 37.669 0 52.109 9.418 9.418 23.228 12.556 35.788 9.418l26.367 29.508 1.883 2.512c17.58 29.508 13.811 65.919-11.302 91.033-18.208 19.461-45.202 25.741-69.059 20.086-0.626-7.534-4.396-14.441-10.046-20.086-13.811-14.441-37.669-14.441-52.109 0-14.441 13.811-14.441 37.669 0 52.109 13.811 13.811 35.788 13.811 50.224 1.883l114.258 47.085c-24.484 52.737-38.295 111.75-38.295 173.903 0 228.523 184.576 413.098 413.098 413.098s413.098-184.576 413.098-413.098c0.626-227.894-183.949-413.098-412.471-413.098zM579.225 945.841c-217.85 0-394.891-177.039-394.891-394.891 0-59.644 13.182-116.143 37.038-166.996l55.247 22.599 158.208-158.208-22.599-55.247c50.853-23.858 107.357-37.038 166.996-37.038 217.85 0 394.891 177.039 394.891 394.891 0 217.219-176.414 394.891-394.891 394.891z" fill="#8a8a8a" p-id="21669"></path></svg>