<?xml version="1.0" encoding="utf-8"?>
<!-- Generator: Adobe Illustrator 18.0.0, SVG Export Plug-In . SVG Version: 6.00 Build 0)  -->
<!DOCTYPE svg PUBLIC "-//W3C//DTD SVG 1.1//EN" "http://www.w3.org/Graphics/SVG/1.1/DTD/svg11.dtd">
<svg version="1.1" id="图层_1" xmlns="http://www.w3.org/2000/svg" xmlns:xlink="http://www.w3.org/1999/xlink" x="0px" y="0px"
	 viewBox="0 0 1000 1000" style="enable-background:new 0 0 1000 1000;" xml:space="preserve">
<style type="text/css">
	.st0{fill:#FFFFFF;}
</style>
<g>
	<path class="st0" d="M865.8,930.4H135.4c-64.8,0-117.5-52.7-117.5-117.5V193.5C17.9,128.7,70.6,76,135.4,76h730.4
		c64.8,0,117.5,52.7,117.5,117.5v619.4C983.3,877.7,930.6,930.4,865.8,930.4z M135.4,131c-34.5,0-62.5,28-62.5,62.5v619.4
		c0,34.5,28,62.5,62.5,62.5h730.4c34.5,0,62.5-28,62.5-62.5V193.5c0-34.5-28-62.5-62.5-62.5H135.4z"/>
</g>
<g>
	<path class="st0" d="M274.7,930.4c-15.2,0-27.5-12.3-27.5-27.5V103.5c0-15.2,12.3-27.5,27.5-27.5s27.5,12.3,27.5,27.5v799.4
		C302.2,918.1,289.8,930.4,274.7,930.4z"/>
</g>
</svg>
