<?xml version="1.0" standalone="no"?><!DOCTYPE svg PUBLIC "-//W3C//DTD SVG 1.1//EN" "http://www.w3.org/Graphics/SVG/1.1/DTD/svg11.dtd"><svg t="1502521469589" class="icon" style="" viewBox="0 0 1024 1024" version="1.1" xmlns="http://www.w3.org/2000/svg" p-id="25224" xmlns:xlink="http://www.w3.org/1999/xlink" width="200" height="200"><defs><style type="text/css"></style></defs><path d="M512.006 383.124c42.421 0 82.435-16.65 112.671-46.885 30.238-30.235 46.892-70.252 46.892-112.677s-16.653-82.441-46.892-112.677C594.44 80.651 554.427 64 512.006 64c-42.42 0-82.436 16.649-112.674 46.883-30.244 30.237-46.9 70.254-46.9 112.679s16.656 82.441 46.9 112.679C429.57 366.474 469.586 383.124 512.006 383.124zM444.582 156.143C462.733 137.996 486.678 128 512.006 128c25.326 0 49.27 9.994 67.418 28.142 18.149 18.147 28.145 42.091 28.145 67.42s-9.995 49.272-28.145 67.42c-18.148 18.147-42.092 28.142-67.418 28.142-25.328 0-49.272-9.995-67.424-28.143-18.153-18.149-28.15-42.092-28.15-67.419S426.429 174.292 444.582 156.143z" p-id="25225" fill="#8a8a8a"></path><path d="M223.863 224.508C153.829 224.508 96 282.035 96 352.07c0 70.034 57.829 127.259 127.863 127.259 70.048 0 127.26-57.225 127.26-127.259C351.123 282.035 293.911 224.508 223.863 224.508zM268.505 396.708c-12.007 12.008-27.86 18.62-44.642 18.62-16.893 0-32.904-6.665-45.088-18.769C166.668 384.531 160 368.73 160 352.07c0-16.719 6.694-32.6 18.85-44.715 12.193-12.154 28.18-18.847 45.014-18.847 16.723 0 32.551 6.64 44.567 18.696 12.054 12.095 18.692 28.027 18.692 44.865C287.123 368.849 280.512 384.702 268.505 396.708z" p-id="25226" fill="#8a8a8a"></path><path d="M928 352.07c0-70.035-57.828-127.562-127.861-127.562-70.035 0-127.26 57.526-127.26 127.562 0 70.034 57.225 127.259 127.26 127.259C870.172 479.329 928 422.104 928 352.07zM736.879 352.07c0-16.835 6.64-32.768 18.695-44.863 12.019-12.058 27.846-18.698 44.564-18.698 16.834 0 32.819 6.692 45.012 18.846C857.306 319.47 864 335.351 864 352.07c0 16.661-6.668 32.461-18.775 44.49-12.182 12.104-28.194 18.769-45.086 18.769-16.777 0-32.63-6.613-44.639-18.622C743.492 384.699 736.879 368.847 736.879 352.07z" p-id="25227" fill="#8a8a8a"></path><path d="M223.808 834.14l-79.746 0c-10.802 0-18.257-7.455-18.257-18.271L125.805 712.876c0-57.225 36.028-104.842 87.071-121.773 11.812-3.491 16.643-4.816 23.139-9.135 7.612-5.486 12.482-14.279 12.482-24.359 0-16.695-13.44-30.135-30.148-30.135-5.866 0.065-11.405 0.958-17.036 2.428C121.985 552.87 64 626.277 64 712.876l0 102.993c0 43.838 36.237 80.089 80.062 80.089l79.746 0c16.354 0.236 31.657-14.713 31.657-31.054C255.465 848.551 240.161 833.916 223.808 834.14z" p-id="25228" fill="#8a8a8a"></path><path d="M822.686 529.901c-5.631-1.47-11.168-2.362-17.049-2.428-16.695 0-30.135 13.439-30.135 30.135 0 10.08 4.855 18.873 12.482 24.359 6.496 4.318 11.326 5.644 23.139 9.135 51.043 16.932 87.07 64.549 87.07 121.773l0 102.993c0 10.815-7.455 18.271-18.27 18.271l-79.732 0c-16.34-0.236-31.67 14.411-31.67 30.765 0 16.341 15.33 31.276 31.67 31.054l79.732 0c43.838 0 80.076-36.251 80.076-80.089L959.999 712.876C960 626.277 902.014 552.87 822.686 529.901z" p-id="25229" fill="#8a8a8a"></path><path d="M511.848 448.528c-104.934 0-190.284 85.339-190.284 190.286l0 179.264 0 6.09 0 55.702c0 43.838 36.237 80.089 80.075 80.089 0.98 0.056 219.438 0.056 220.42 0 43.824 0 80.363-36.041 80.363-80.089l0-55.702 0-6.09L702.422 638.813C702.422 533.867 616.781 448.528 511.848 448.528zM640.314 818.077l0 6.09 0 55.702c0 10.605-7.455 18.271-18.256 18.271-1.014-0.058-219.406-0.058-220.42 0-10.816 0-18.271-7.455-18.271-18.271l0-55.702 0-6.09L383.367 638.813c0-71.701 56.779-128.493 128.48-128.493 71.689 0 128.467 56.792 128.467 128.493L640.314 818.077z" p-id="25230" fill="#8a8a8a"></path></svg>