<?xml version="1.0" standalone="no"?>
<!DOCTYPE svg PUBLIC "-//W3C//DTD SVG 1.1//EN" "http://www.w3.org/Graphics/SVG/1.1/DTD/svg11.dtd" >
<!--
2013-9-30: Created.
-->
<svg>
<metadata>
Created by iconfont
</metadata>
<defs>

<font id="iconfont" horiz-adv-x="1024" >
  <font-face
    font-family="iconfont"
    font-weight="500"
    font-stretch="normal"
    units-per-em="1024"
    ascent="896"
    descent="-128"
  />
    <missing-glyph />
    
    <glyph glyph-name="x" unicode="x" horiz-adv-x="1001"
d="M281 543q-27 -1 -53 -1h-83q-18 0 -36.5 -6t-32.5 -18.5t-23 -32t-9 -45.5v-76h912v41q0 16 -0.5 30t-0.5 18q0 13 -5 29t-17 29.5t-31.5 22.5t-49.5 9h-133v-97h-438v97zM955 310v-52q0 -23 0.5 -52t0.5 -58t-10.5 -47.5t-26 -30t-33 -16t-31.5 -4.5q-14 -1 -29.5 -0.5
t-29.5 0.5h-32l-45 128h-439l-44 -128h-29h-34q-20 0 -45 1q-25 0 -41 9.5t-25.5 23t-13.5 29.5t-4 30v167h911zM163 247q-12 0 -21 -8.5t-9 -21.5t9 -21.5t21 -8.5q13 0 22 8.5t9 21.5t-9 21.5t-22 8.5zM316 123q-8 -26 -14 -48q-5 -19 -10.5 -37t-7.5 -25t-3 -15t1 -14.5
t9.5 -10.5t21.5 -4h37h67h81h80h64h36q23 0 34 12t2 38q-5 13 -9.5 30.5t-9.5 34.5q-5 19 -11 39h-368zM336 498v228q0 11 2.5 23t10 21.5t20.5 15.5t34 6h188q31 0 51.5 -14.5t20.5 -52.5v-227h-327z" />
    

    
    <glyph glyph-name="search" unicode="&#59476;" d="M992.256 24.59648l-242.54464 206.29504c-25.06752 22.56896-51.89632 32.93184-73.54368 31.92832 57.26208 67.072 91.83232 154.07104 91.83232 249.18016 0 212.0704-171.9296 384-384 384s-384-171.9296-384-384 171.9296-384 384-384c95.08864 0 182.10816 34.59072 249.18016 91.8528-1.00352-21.66784 9.35936-48.47616 31.92832-73.54368l206.29504-242.54464c35.328-39.23968 93.02016-42.55744 128.22528-7.35232s31.88736 92.89728-7.35232 128.22528zM384 256c-141.39392 0-256 114.60608-256 256s114.60608 256 256 256 256-114.60608 256-256-114.60608-256-256-256z"  horiz-adv-x="1025" />

    
    <glyph glyph-name="header" unicode="&#59135;" d="M961.142857-138.857143q-25.142857 0-75.714286 2t-76.285714 2q-25.142857 0-75.428571-2t-75.428571-2q-13.714286 0-21.142857 11.714286t-7.428571 26q0 17.714286 9.714286 26.285714t22.285714 9.714286 29.142857 4 25.714286 8.571429q18.857143 12 18.857143 80l-0.571429 223.428571q0 12-0.571429 17.714286-7.428571 2.285714-28.571429 2.285714l-385.714286 0q-21.714286 0-29.142857-2.285714-0.571429-5.714286-0.571429-17.714286l-0.571429-212q0-81.142857 21.142857-93.714286 9.142857-5.714286 27.428571-7.428571t32.571429-2 25.714286-8.571429 11.428571-26q0-14.857143-7.142857-27.428571t-20.857143-12.571429q-26.857143 0-79.714286 2t-79.142857 2q-24.571429 0-73.142857-2t-72.571429-2q-13.142857 0-20.285714 12t-7.142857 25.714286q0 17.142857 8.857143 25.714286t20.571429 10 27.142857 4.285714 24 8.571429q18.857143 13.142857 18.857143 81.714286l-0.571429 32.571429 0 464.571429q0 1.714286 2.857143 14.857143t0 20.857143-0.857143 22-2 24-3.714286 20.857143-6.285714 18-9.142857 10.285714q-8.571429 5.714286-25.714286 6.857143t-30.285714 1.142857-23.428571 8-10.285714 25.714286q0 14.857143 6.857143 27.428571t20.571429 12.571429q26.285714 0 79.142857-2t79.142857-2q24 0 72.285714 2t72.285714 2q14.285714 0 21.428571-12.571429t7.142857-27.428571q0-17.142857-9.714286-24.857143t-22-8.285714-28.285714-2.285714-24.571429-7.428571q-20-12-20-91.428571l0.571429-182.857143q0-12 0.571429-18.285714 7.428571-1.714286 22.285714-1.714286l399.428571 0q14.285714 0 21.714286 1.714286 0.571429 6.285714 0.571429 18.285714l0.571429 182.857143q0 79.428571-20 91.428571-10.285714 6.285714-33.428571 7.142857t-37.714286 7.428571-14.571429 28.285714q0 14.857143 7.142857 27.428571t21.428571 12.571429q25.142857 0 75.428571-2t75.428571-2q24.571429 0 73.714286 2t73.714286 2q14.285714 0 21.428571-12.571429t7.142857-27.428571q0-17.142857-10-25.142857t-22.857143-8.285714-29.428571-1.714286-25.142857-7.142857q-20-13.142857-20-92l0.571429-538.857143q0-68 19.428571-80 9.142857-5.714286 26.285714-7.714286t30.571429-2.571429 23.714286-8.857143 10.285714-25.428571q0-14.857143-6.857143-27.428571t-20.571429-12.571429z"  horiz-adv-x="1024" />

    
    <glyph glyph-name="filetexto" unicode="&#60092;" d="M911.989715 678.854368q16.017142-16.017142 27.426612-43.443754t11.409471-50.318692l0-658.238697q0-22.818942-16.017142-38.836083t-38.836083-16.017142l-767.945147 0q-22.818942 0-38.836083 16.017142t-16.017142 38.836083l0 914.220413q0 22.818942 16.017142 38.836083t38.836083 16.017142l511.963431 0q22.818942 0 50.318692-11.409471t43.443754-27.426612zM658.275266 818.327834l0-214.805228 214.805228 0q-5.704735 16.602243-12.579673 23.404043l-178.821513 178.821513q-6.874938 6.874938-23.404043 12.579673zM877.688165-54.789229l0 585.101064-237.697307 0q-22.818942 0-38.836083 16.017142t-16.017142 38.836083l0 237.697307-438.825798 0 0-877.651596 731.37633 0zM292.587101 438.889794q0 7.972002 5.119634 13.164774t13.164774 5.119634l402.256982 0q7.972002 0 13.164774-5.119634t5.119634-13.164774l0-36.568817q0-7.972002-5.119634-13.164774t-13.164774-5.119634l-402.256982 0q-7.972002 0-13.164774 5.119634t-5.119634 13.164774l0 36.568817zM713.128491 310.898936q7.972002 0 13.164774-5.119634t5.119634-13.164774l0-36.568817q0-7.972002-5.119634-13.164774t-13.164774-5.119634l-402.256982 0q-7.972002 0-13.164774 5.119634t-5.119634 13.164774l0 36.568817q0 7.972002 5.119634 13.164774t13.164774 5.119634l402.256982 0zM713.128491 164.62367q7.972002 0 13.164774-5.119634t5.119634-13.164774l0-36.568817q0-7.972002-5.119634-13.164774t-13.164774-5.119634l-402.256982 0q-7.972002 0-13.164774 5.119634t-5.119634 13.164774l0 36.568817q0 7.972002 5.119634 13.164774t13.164774 5.119634l402.256982 0z"  horiz-adv-x="1024" />

    
    <glyph glyph-name="success" unicode="&#58891;" d="M436.547368 332.8 239.061654 519.891729 7.699248 337.804511l409.984962-400.360902c0 0 266.009023 394.201504 694.857143 773.774436L1112.541353 830.556391C804.956391 650.393985 436.547368 332.8 436.547368 332.8z"  horiz-adv-x="1125" />

    
    <glyph glyph-name="content" unicode="&#58931;" d="M118.894366 200.263325l52.495608 0 0-52.495608-52.495608 0c-40.345893 0-52.496631 12.098549-52.496631 52.495608L64.911894 762.750183c0 40.295751 13.636578 67.466578 53.982472 67.466578l629.952412 0c40.345893 0 52.496631-12.099572 52.496631-52.495608l0-52.496631-52.496631 0L748.846778 777.721153 118.894366 777.721153 118.894366 200.263325l21.12104-9.226129L118.894366 200.263325zM958.830233 620.232283l0-629.952412c0-40.294728-12.148691-52.496631-52.495608-52.496631L276.382213-62.216761c-40.448224 0-52.495608 12.201903-52.495608 52.496631L223.886605 620.232283c0 40.294728 12.149714 52.495608 52.495608 52.495608l629.952412 0c40.141232 0 52.752458-19.787672 52.752458-60.083423l0 0 0 0L958.830233 620.232283zM906.334625 620.232283 276.382213 620.232283l0-629.952412 629.952412 0L906.334625 620.232283 906.334625 620.232283 906.334625 620.232283zM328.877821 462.743412l209.984479 0c3.486404 0-11.226692 27.684526 0 0l0 52.496631 0 0c0 3.486404 3.435239 0 0 0L328.877821 515.240043c-3.53757 0 0 3.486404 0 0L328.877821 462.743412C328.877821 459.258031 325.341275 462.743412 328.877821 462.743412L328.877821 462.743412 328.877821 462.743412 328.877821 462.743412zM328.877821 305.256588l367.471302 0c3.486404 0-3.279696 3.075035 0 0l0 52.495608c0.103354 0.308015 0-0.306992 0 0 0 3.485381 3.435239 0 0 0L328.877821 357.752196c-3.53757 0 0 3.485381 0 0L328.877821 305.256588C328.877821 301.872514 295.811728 336.424448 328.877821 305.256588L328.877821 305.256588 328.877821 305.256588 328.877821 305.256588zM328.877821 147.767717l472.465588 0c3.434216 0 0-3.385097 0 0l0 52.495608c-26.196639 13.534248 0.255827-0.102331 0 0-21.327748 8.408507 3.38305 0 0 0L328.877821 200.263325c-3.53757 0 0 3.485381 0 0L328.877821 147.767717C328.877821 144.383644 279.406083 193.701886 328.877821 147.767717L328.877821 147.767717 328.877821 147.767717 328.877821 147.767717zM328.877821 147.767717"  horiz-adv-x="1024" />

    
    <glyph glyph-name="data" unicode="&#58935;" d="M512 438.613c67.413 0 130.418 6.115 189.013 18.347 58.595 12.231 104.818 30.293 138.667 54.187v-72.533c0-19.627-14.649-37.831-43.947-54.613-29.298-16.782-69.12-30.080-119.467-39.893-50.347-9.813-105.102-14.72-164.267-14.72-59.165 0-113.92 4.907-164.267 14.72-50.347 9.813-90.169 23.111-119.467 39.893-29.298 16.782-43.947 34.987-43.947 54.613v72.533c33.849-23.893 80.071-41.955 138.667-54.187 58.595-12.231 121.6-18.347 189.013-18.347v0zM512 110.933c67.413 0 130.418 6.115 189.013 18.347 58.595 12.231 104.818 30.293 138.667 54.187v-72.533c0-19.627-14.649-37.831-43.947-54.613s-69.12-30.080-119.467-39.893c-50.347-9.813-105.102-14.72-164.267-14.72-59.165 0-113.92 4.907-164.267 14.72-50.347 9.813-90.169 23.111-119.467 39.893-29.298 16.782-43.947 34.987-43.947 54.613v72.533c33.849-23.893 80.071-41.955 138.667-54.187 58.595-12.231 121.6-18.347 189.013-18.347v0zM512 274.773c67.413 0 130.418 6.115 189.013 18.347 58.595 12.231 104.818 30.293 138.667 54.187v-72.533c0-19.627-14.649-37.831-43.947-54.613s-69.12-30.080-119.467-39.893c-50.347-9.813-105.102-14.72-164.267-14.72-59.165 0-113.92 4.907-164.267 14.72-50.347 9.813-90.169 23.111-119.467 39.893-29.298 16.782-43.947 34.987-43.947 54.613v72.533c33.849-23.893 80.071-41.955 138.667-54.187 58.595-12.231 121.6-18.347 189.013-18.347v0zM512 766.293c59.165 0 113.92-4.907 164.267-14.72 50.347-9.813 90.169-23.111 119.467-39.893 29.298-16.782 43.947-34.987 43.947-54.613v-54.613c0-19.627-14.649-37.831-43.947-54.613s-69.12-30.080-119.467-39.893c-50.347-9.813-105.102-14.72-164.267-14.72-59.165 0-113.92 4.907-164.267 14.72-50.347 9.813-90.169 23.111-119.467 39.893-29.298 16.782-43.947 34.987-43.947 54.613v54.613c0 19.627 14.649 37.831 43.947 54.613s69.12 30.080 119.467 39.893c50.347 9.813 105.102 14.72 164.267 14.72v0z"  horiz-adv-x="1024" />

    
    <glyph glyph-name="team" unicode="&#58915;" d="M631.316087 409.237314c44.746155 35.434059 73.640258 90.340631 73.640258 152.023544 0 106.628612-86.022275 193.386645-191.789263 193.386645-105.755731 0-191.776983-86.758033-191.776983-193.386645 0-61.682913 28.894103-116.589485 73.627978-152.023544-117.900341-47.517271-201.475889-163.630918-201.475889-299.204798l0-64.440726c0-17.823965 14.304812-32.240317 31.952768-32.240317l575.356532 0c17.661259 0 31.952768 14.416352 31.952768 32.240317l0 64.440726C832.804256 245.668818 749.215405 361.720044 631.316087 409.237314L631.316087 409.237314 631.316087 409.237314 631.316087 409.237314 631.316087 409.237314zM386.131677 561.522825c0 70.657317 56.965466 128.096575 127.036428 128.096575s127.047685-57.439258 127.047685-128.096575c0-70.632758-56.977746-128.096575-127.047685-128.096575S386.131677 490.865508 386.131677 561.522825L386.131677 561.522825 386.131677 561.522825 386.131677 561.522825 386.131677 561.522825zM762.371043 78.91579l-498.433505 0 0 31.416555c0 138.568077 111.808594 251.31402 249.266383 251.31402 137.396391 0 249.167122-112.745943 249.167122-251.31402L762.371043 78.91579 762.371043 78.91579 762.371043 78.91579 762.371043 78.91579 762.371043 78.91579zM283.895099 384.524445l6.852065 1.510401c14.702878 4.517901 25.187684 16.388265 25.187684 30.3165 0 13.455467-9.798167 24.96358-23.689562 29.818149-37.543095 15.677067-61.769894 50.087819-61.769894 87.994188 0 42.960484 40.352074 79.156907 82.589079 91.700607 7.401581 20.980868 18.585306 40.389936 32.826672 57.551821 2.483567 3.794423 5.104256 7.501865 7.82523 11.133583-2.834561 0.137123-5.528929 0.786923-8.450471 0.786923-96.668763 0-175.350855-72.292562-175.350855-161.172934 0-40.802329 16.912198-79.044343 45.606756-108.126734-91.289237-43.460881-150.826275-130.393899-150.826275-228.733723l0-49.864738c0-17.823965 15.689346-32.225991 35.060552-32.225991l62.831063 0c0 22.078877 2.459007 36.245542 7.077193 57.06575l-44.396184 0 0 25.024978C125.2702 286.383143 190.423148 362.842612 283.895099 384.524445L283.895099 384.524445 283.895099 384.524445 283.895099 384.524445 283.895099 384.524445zM808.527315 426.036949c28.707861 29.081368 45.620059 67.336685 45.620059 108.126734 0 88.880372-78.658556 161.197493-175.351879 161.197493-2.920519 0-5.629213-0.661056-8.462751-0.786923 2.734277-3.631717 5.353943-7.351439 7.82523-11.133583 14.25467-17.161885 25.437371-36.570953 32.802113-57.551821 42.237006-12.5437 88.43114-48.740123 88.43114-91.700607 0-37.918649-24.264661-72.341681-61.770917-88.006468-13.891396-4.84229-23.689562-16.351426-23.689562-29.805869 0-13.929258 10.510388-25.798598 25.187684-30.3165l6.839785-1.510401c93.51186-21.705369 158.639225-98.142326 158.639225-187.245779l0-25.024978-50.262804 0c4.642745-20.820209 7.077193-34.985851 7.077193-57.06575l62.831063 0c19.395765 0 35.060552 14.402026 35.060552 32.225991l0 49.864738C959.364846 295.644073 899.829855 382.577091 808.527315 426.036949L808.527315 426.036949 808.527315 426.036949 808.527315 426.036949 808.527315 426.036949zM808.527315 426.036949"  horiz-adv-x="1024" />

    
    <glyph glyph-name="iconfonticonfonticonfonticonfonticonfonticonfontweibiaoti1015332" unicode="&#59260;" d="M644.726 809.13 272.863 809.13c-58.693 0-106.281-47.588-106.281-106.282l0-637.695c0-58.694 47.588-106.282 106.281-106.282l478.271 0c58.693 0 106.283 47.588 106.283 106.282L857.417 596.565 644.726 809.13zM643.101 725.927l127.22-127.144L666.243 598.783c-12.761 0-23.143 10.381-23.143 23.141L643.1 725.927zM751.135 18.87 272.863 18.87c-25.52 0-46.281 20.762-46.281 46.282L226.582 702.848c0 25.521 20.762 46.282 46.281 46.282l310.237 0 0-127.206c0-45.844 37.298-83.141 83.143-83.141l131.175 0 0-473.631C797.418 39.632 776.655 18.87 751.135 18.87z"  horiz-adv-x="1024" />

    
    <glyph glyph-name="cookie" unicode="&#59278;" d="M512 768C299.946667 768 128 596.053333 128 384 128 171.946667 299.946667 0 512 0 724.053333 0 896 171.946667 896 384 896 405.333333 894.293333 426.666667 890.453333 448 878.933333 469.333333 853.333333 469.333333 853.333333 469.333333L768 469.333333 768 512C768 554.666667 725.333333 554.666667 725.333333 554.666667L640 554.666667 640 597.333333C640 640 597.333333 640 597.333333 640L554.666667 640 554.666667 725.333333C554.666667 768 512 768 512 768M405.333333 640C440.746667 640 469.333333 611.413333 469.333333 576 469.333333 540.586667 440.746667 512 405.333333 512 369.92 512 341.333333 540.586667 341.333333 576 341.333333 611.413333 369.92 640 405.333333 640M277.333333 469.333333C312.746667 469.333333 341.333333 440.746667 341.333333 405.333333 341.333333 369.92 312.746667 341.333333 277.333333 341.333333 241.92 341.333333 213.333333 369.92 213.333333 405.333333 213.333333 440.746667 241.92 469.333333 277.333333 469.333333M490.666667 426.666667C526.08 426.666667 554.666667 398.08 554.666667 362.666667 554.666667 327.253333 526.08 298.666667 490.666667 298.666667 455.253333 298.666667 426.666667 327.253333 426.666667 362.666667 426.666667 398.08 455.253333 426.666667 490.666667 426.666667M704 341.333333C739.413333 341.333333 768 312.746667 768 277.333333 768 241.92 739.413333 213.333333 704 213.333333L704 213.333333C668.586667 213.333333 640 241.92 640 277.333333L640 277.333333C640 312.746667 668.586667 341.333333 704 341.333333M469.333333 213.333333C504.746667 213.333333 533.333333 184.746667 533.333333 149.333333 533.333333 113.92 504.746667 85.333333 469.333333 85.333333 433.92 85.333333 405.333333 113.92 405.333333 149.333333 405.333333 184.746667 433.92 213.333333 469.333333 213.333333Z"  horiz-adv-x="1024" />

    
    <glyph glyph-name="folder" unicode="&#59020;" d="M355.328 720 433.952 642.752 454.08 624 480.576 624 960.576 624 960.576 48 64.576 48 64.576 720 352.576 720M384.576 784 64.576 784C29.248 784 0.576 755.36 0.576 720L0.576 48C0.576 12.672 29.248-16 64.576-16L960.576-16C995.936-16 1024.576 12.672 1024.576 48L1024.576 624C1024.576 659.36 995.936 688 960.576 688L480.576 688 384.576 784 384.576 784Z"  horiz-adv-x="1025" />

    
    <glyph glyph-name="close" unicode="&#58940;" d="M574.85863 384l298.588469 298.588469c17.359366 17.35732 17.359366 45.500287 0 62.859653-17.35732 17.359366-45.500287 17.359366-62.859653 0L511.998977 446.860676 213.410508 745.449145c-17.35732 17.359366-45.500287 17.359366-62.859653 0-17.35732-17.359366-17.35732-45.502333 0-62.859653l298.588469-298.588469L150.549831 85.411531c-17.35732-17.359366-17.35732-45.502333 0-62.859653 17.359366-17.359366 45.502333-17.359366 62.859653 0l298.588469 298.588469 298.588469-298.588469c17.359366-17.359366 45.502333-17.359366 62.859653 0 17.359366 17.35732 17.359366 45.500287 0 62.859653L574.85863 384z"  horiz-adv-x="1024" />

    
    <glyph glyph-name="file" unicode="&#58975;" d="M858.251002 830.461331 709.22692 830.461331l-0.204661-0.184195c-0.112564 0-0.204661 0.038886-0.312108 0.038886-13.967106 0-25.461905-10.3006-27.538193-23.667026l-0.248663-0.225127c-7.556093-33.045627-18.427698-76.41232-53.822836-76.41232l-246.183935 1.517563c-34.927487 0-45.37442 42.771129-53.413514 75.16491-1.36509 13.386892-12.069897 23.892153-25.568329 24.910343l-0.370437 0.375553L165.181063 831.979918c-20.552082 0-37.239136-16.666588-37.239136-37.239136l0-819.454394c0-20.571525 16.686031-37.238113 37.239136-37.238113l693.049472-1.517563c20.557198 0 37.239136 16.666588 37.239136 37.238113L895.469672 793.222195C895.490138 813.794743 878.788757 830.461331 858.251002 830.461331L858.251002 830.461331 858.251002 830.461331zM858.251002-26.232199l-693.069939 1.517563L165.181063 794.739758l126.998439 0c9.087982-36.459377 26.38288-100.44569 88.810698-100.44569l246.183935-1.517563c62.952774 0 80.69281 64.810075 88.940658 100.44569L858.230536 793.222195l0-819.454394L858.251002-26.232199 858.251002-26.232199 858.251002-26.232199zM407.172513 794.627195l209.110575-1.517563c10.295484 0 18.61701 8.346085 18.61701 18.622126 0 10.277064-8.321526 18.61701-18.61701 18.61701L407.172513 831.866331c-10.281157 0-18.622126-8.339946-18.622126-18.61701C388.550387 802.974303 396.891356 794.627195 407.172513 794.627195L407.172513 794.627195 407.172513 794.627195zM246.674099 514.154315c0-10.276041 8.339946-18.61701 18.61701-18.61701l497.744321-1.517563c10.295484 0 18.622126 8.340969 18.622126 18.61701 0 10.277064-8.326643 18.622126-18.622126 18.622126l-497.744321 1.517563C255.014044 532.776442 246.674099 524.43138 246.674099 514.154315L246.674099 514.154315 246.674099 514.154315zM763.03543 353.205647l-497.744321 1.517563c-10.277064 0-18.61701-8.321526-18.61701-18.61701 0-10.3006 8.339946-18.622126 18.61701-18.622126l497.744321-1.517563c10.295484 0 18.622126 8.321526 18.622126 18.622126C781.657556 344.884121 773.330914 353.205647 763.03543 353.205647L763.03543 353.205647 763.03543 353.205647zM763.03543 176.473503l-497.744321 1.517563c-10.277064 0-18.61701-8.321526-18.61701-18.622126 0-10.295484 8.339946-18.61701 18.61701-18.61701l497.744321-1.517563c10.295484 0 18.622126 8.321526 18.622126 18.61701C781.657556 168.151977 773.330914 176.473503 763.03543 176.473503L763.03543 176.473503 763.03543 176.473503zM763.03543 176.473503"  horiz-adv-x="1024" />

    
    <glyph glyph-name="foot" unicode="&#58913;" d="M639.436 690.069c35.18 0 63.719 28.542 63.719 63.761 0 35.177-28.539 63.718-63.719 63.718-35.177 0-63.719-28.54-63.719-63.718C575.718 718.61 604.259 690.069 639.436 690.069zM469.522 732.547c35.177 0 63.718 28.541 63.718 63.761 0 35.177-28.541 63.718-63.718 63.718-35.178 0-63.72-28.54-63.72-63.718C405.804 761.088 434.345 732.547 469.522 732.547zM363.325 753.83c0 58.616-47.54 106.197-106.197 106.197-58.659 0-106.197-47.581-106.197-106.197 0-58.658 47.538-106.238 106.197-106.238C315.785 647.592 363.325 695.171 363.325 753.83zM618.197 587.592 405.804 587.592c-117.315 0-201.772-92.92-169.914-169.874 31.858-76.992 84.957-50.443 84.957-169.957 0-119.472-26.55-84.956-42.479-169.914-15.931-84.915 50.442-169.873 169.915-169.873 119.469 0 244.254 66.331 297.351 169.873C798.734 181.389 830.59 375.24 830.59 375.24 830.59 492.513 735.512 587.592 618.197 587.592zM809.351 732.547c-35.179 0-63.719-28.499-63.719-63.718 0-35.177 28.54-63.718 63.719-63.718 35.178 0 63.719 28.54 63.719 63.718C873.067 704.048 844.527 732.547 809.351 732.547z"  horiz-adv-x="1024" />

    
    <glyph glyph-name="fileimage" unicode="&#58950;" d="M890.25221 678.912q16.384-16.384 27.648-43.008t11.264-51.2l0-657.408q0-23.552-15.36-38.912t-38.912-16.384l-768 0q-23.552 0-38.912 16.384t-16.384 38.912l0 913.408q0 23.552 16.384 38.912t38.912 16.384l512 0q22.528 0 50.176-11.264t43.008-27.648zM636.30021 818.176l0-215.04 215.04 0q-5.12 16.384-12.288 23.552l-179.2 179.2q-6.144 7.168-23.552 12.288zM856.46021-55.296l0 585.728-237.568 0q-23.552 0-38.912 15.36t-16.384 38.912l0 238.592-439.296 0 0-878.592 732.16 0zM782.73221 200.704l0-182.272-584.704 0 0 109.568 109.568 109.568 72.704-72.704 220.16 219.136zM307.59621 311.296q-46.08 0-77.824 31.744t-31.744 77.824 31.744 77.824 77.824 31.744 77.824-31.744 31.744-77.824-31.744-77.824-77.824-31.744z"  horiz-adv-x="1024" />

    
    <glyph glyph-name="slidedot" unicode="&#59014;" d="M730.453333 896l-269.653333 0 0-1024 269.653333 0c78.506667 0 143.36 61.44 143.36 133.12L873.813333 762.88C873.813333 834.56 808.96 896 730.453333 896zM624.64 206.506667l-47.786667 0L576.853333 561.493333l47.786667 0L624.64 206.506667zM713.386667 206.506667l-47.786667 0L665.6 561.493333l47.786667 0L713.386667 206.506667z"  horiz-adv-x="1024" />

    
    <glyph glyph-name="ready" unicode="&#58880;" d="M511.685333 826.906365c-245.013273 0-443.644169-198.618617-443.644169-443.629843 0-245.013273 198.629873-443.635983 443.644169-443.635983 245.01225 0 443.651332 198.62271 443.651332 443.635983C955.336666 628.287749 756.697583 826.906365 511.685333 826.906365zM511.685333 46.078711c-185.92962 0-337.184509 151.260006-337.184509 337.196789 0 185.928596 151.255912 337.179392 337.184509 337.179392 185.919387 0 337.169159-151.250796 337.169159-337.179392C848.854493 197.33974 697.60472 46.078711 511.685333 46.078711zM682.400437 493.007693c2.194992 2.210341 4.78805 4.734838 7.773034 7.578606 2.987031 2.838651 6.364965 6.151094 10.135848 9.942443 3.445472 3.78521 5.962805 7.734148 7.535627 11.837606 1.575892 4.103458 2.360767 8.204869 2.360767 12.308327 0 4.103458-0.391926 8.049327-1.179872 11.836583-0.77055 3.790326-1.789763 7.103792-3.063779 9.942443-4.397147 9.468652-10.603499 18.546402-18.61394 27.228131-8.011464 8.677637-15.318894 14.751982-21.921265 18.226107-3.137457 1.581008-6.828522 3.000334-11.069103 4.26514-4.243651 1.260713-8.641821 1.968841-13.196557 2.128477-4.556783 0.160659-9.191336-0.470721-13.905708-1.89107-4.711302-1.423419-9.271154-3.870144-13.667278-7.341199-3.457752-2.842745-7.78122-6.706749-12.96222-11.600199-5.184069-4.894474-9.661034-9.076726-13.429871-12.547781l88.132246-88.540546C677.526429 488.271832 679.886173 490.48422 682.400437 493.007693zM668.764881 193.212746l42.147936 0 0 42.157145L668.764881 235.369891 668.764881 193.212746zM497.088894 193.212746 539.234783 193.212746l0 42.157145-42.146912 0L497.08787 193.212746zM450.512089 438.080709l-38.179554-38.35147-34.407648-34.565237c-10.368138-10.417257-19.007913-19.172665-25.922393-26.278503-6.91141-7.100722-11.31265-11.598152-13.196557-13.493316-4.39817-4.420683-7.774057-8.444323-10.132778-12.078083-2.355651-3.62762-4.476965-7.65433-6.360871-12.07399-1.573845-2.839675-3.613294-8.048303-6.126534-15.623839-2.517333-7.576559-5.106298-15.861246-7.77815-24.859177-2.670829-8.997931-5.185093-17.673521-7.540743-26.040073-2.354628-8.364505-3.850701-14.760169-4.479011-19.174712-1.255597-8.209986-0.471744-14.048971 2.358721-17.522072 2.829442-3.472078 8.482185-4.732791 16.968463-3.787256 4.085038 0.629333 10.288321 2.054799 18.614963 4.263094s17.126053 4.810562 26.393113 7.80885c9.270131 3.00238 18.146289 6.079462 26.629497 9.237385 8.485255 3.155876 14.925944 5.835915 19.323091 8.048303 4.40124 1.89107 8.644891 4.41659 12.729929 7.574512 4.079922 3.155876 7.698333 6.15621 10.837836 8.995885 1.25355 0.949628 5.184069 4.734838 11.782348 11.365862 6.599302 6.625908 14.926968 15.07023 24.979928 25.330922 10.053983 10.254551 21.366633 21.541619 33.935903 33.853016l37.706787 38.353516 101.33085 101.800547-88.135316 89.01843L450.512089 438.080709zM582.925864 193.212746l42.148959 0 0 42.157145-42.148959 0L582.925864 193.212746z"  horiz-adv-x="1024" />

    
    <glyph glyph-name="rentou" unicode="&#58883;" d="M458.442712 891.185344c0 0 309.452911 45.440935 416.33622-204.597795 109.590977-256.326946-60.665685-374.085954-91.427292-406.759097-30.752398-32.69361-109.643166-94.219895-106.735953-136.511093 2.928702-42.300408 24.064069-61.512982 81.746816-61.512982 39.676651-0.01228 71.583338 9.816576 87.62571 15.947204 7.286963 2.783393 10.04989 0.3776 7.045463-7.233752-16.074094-40.758286-82.008782-173.027775-271.539416-208.671577-193.751772-36.411281-333.705268 50.438763-368.794437 75.216076-5.64865 3.989871-4.556783 6.928806 2.14178 8.127098 29.869285 5.281283 112.907513 23.161512 130.168642 60.85295 20.074198 43.781132 3.853771 126.883829-3.842515 132.658346-7.68503 5.762237-88.948845 12.085246-117.863385 17.45965-44.853557 8.336876-43.646056 52.517097-46.847981 75.593675-0.798179 5.691629-13.712303 13.70207-14.888082 28.716019-2.047636 25.871227 14.07967 22.782889 6.383384 28.02324-7.769964 5.27105-11.822257 10.100032-11.590989 17.018605 0.315178 8.892531 4.315282 9.8176 6.614651 25.775037 3.02387 20.808932 1.806135 26.101471 1.806135 26.101471s-62.018495 30.635741-62.050218 46.13269c-0.041956 29.797653 60.024072 70.197782 76.948533 119.680776 14.636349 42.784432-3.486404 65.283866 15.381315 134.578068 8.619308 31.677467 32.988322 44.737924 32.988322 44.737924s-37.335327 37.503149-41.639353 64.35982c-4.327562 26.920116-2.877537 85.074607 49.02046 60.086493C287.347962 821.963797 333.481675 871.950258 458.442712 891.185344z"  horiz-adv-x="1024" />

    
    <glyph glyph-name="run" unicode="&#58895;" d="M192 688.614529C192 759.514058 241.210156 788.283558 302.035675 752.802004L849.964326 433.176948C910.735347 397.727182 910.789843 340.283546 849.964326 304.801994L302.035675-14.82304C241.26465-50.272806 192-21.598669 192 49.364435L192 688.614529Z"  horiz-adv-x="1024" />

    
    <glyph glyph-name="next" unicode="&#58903;" d="M612.096 384.448l-273.984 273.408c-25.216 25.152-25.216 65.984 0 91.136s66.112 25.152 91.328 0l319.616-319.040c25.216-25.152 25.216-65.984 0-91.136l-319.616-318.976c-25.216-25.152-66.112-25.152-91.328 0s-25.216 65.984 0 91.136l273.984 273.472z"  horiz-adv-x="1024" />

    
    <glyph glyph-name="all" unicode="&#59452;" d="M215.209 737.231L107.722 361.026A304.633 304.633 0 0 1 96 277.333V32c0-17.673 14.327-32 32-32 17.673 0 32 14.327 32 32V259.789h192V32c0-17.673 14.327-32 32-32 17.673 0 32 14.327 32 32V275.007c0 29.849-4.16 59.553-12.36 88.254l-106.848 373.97C291.588 755.444 274.941 768 256 768c-18.941 0-35.588-12.556-40.791-30.769zM352 320H160l96 336 96-336zM640 64h-96V736c0 17.673-14.327 32-32 32-17.673 0-32-14.327-32-32v-672c0-35.346 28.654-64 64-64h96c17.673 0 32 14.327 32 32 0 17.673-14.327 32-32 32zM896 64h-96V736c0 17.673-14.327 32-32 32-17.673 0-32-14.327-32-32v-672c0-35.346 28.654-64 64-64h96c17.673 0 32 14.327 32 32 0 17.673-14.327 32-32 32z"  horiz-adv-x="1024" />

    
    <glyph glyph-name="dantizhongzhi" unicode="&#59017;" d="M806.912 715.776C720.896 801.792 602.112 855.04 471.04 855.04 212.992 855.04 0 646.144 0 384s212.992-471.04 471.04-471.04c233.472 0 425.984 172.032 466.944 393.216H778.24c-36.864-135.168-159.744-237.568-303.104-237.568-172.032 0-315.392 139.264-315.392 315.392 0 172.032 139.264 315.392 315.392 315.392 86.016 0 163.84-36.864 221.184-94.208l-143.36-143.36h393.216V855.04L806.912 715.776z"  horiz-adv-x="1024" />

    
    <glyph glyph-name="down" unicode="&#58892;" d="M512 174.016L104.704 581.312l-90.496-90.496L512-6.976l497.792 497.792-90.496 90.496z"  horiz-adv-x="1024" />

    
    <glyph glyph-name="filepacksge" unicode="&#58905;" d="M415.6928 768h95.8976v-64h-95.8976V768zM319.7952 704h95.8976V640H319.7952V704z m95.8976-64h95.8976v-64h-95.8976V640z m-95.8976-64h95.8976V512H319.7952v64z m95.8976-64h95.8976v-64h-95.8976V512z m-95.8976-64h95.8976V384H319.7952v64z m95.8976-64v-64H319.7952v-224c0-17.664 14.336-32 31.9744-32h127.8464c17.664 0 31.9744 14.336 31.9744 32V384h-95.8976z m63.9232-256h-127.8464v64h127.8464V128zM902.5792 696.576l-142.72 142.848C728.7808 870.528 667.392 896 623.4112 896H144A80.1792 80.1792 0 0 1 64.0512 816v-864A80.1792 80.1792 0 0 1 143.9744-128h735.1808a80.1792 80.1792 0 0 1 79.8976 80v608c0 44.0064-25.4464 105.472-56.4992 136.576zM857.344 651.3408c3.1488-3.1488 6.2464-6.9888 9.2672-11.3408h-163.2768V803.456c4.352-3.0464 8.192-6.144 11.3152-9.2672l142.72-142.848z m37.7856-699.3408a16.2048 16.2048 0 0 0-15.9744-16H144a16.2048 16.2048 0 0 0-15.9744 16V816c0 8.6784 7.3216 16 15.9744 16h479.4624c4.8384 0 10.24-0.6144 15.9744-1.6896V576h254.0288c1.0752-5.76 1.6896-11.1616 1.6896-16v-608z"  horiz-adv-x="1024" />

    
    <glyph glyph-name="resource" unicode="&#58886;" d="M510.305 757.33zM141.768 482.878zM493.036 871.875h32.814c56.934-2.606 113.766-13.706 166.651-35.128 110.397-43.715 203.617-128.922 257.27-234.783 34.063-66.391 52.209-140.692 53.75-215.194v-17.659c-1.541-73.626-19.108-146.877-52.393-212.588-32.43-64.748-79.421-122.071-136.264-166.845-58.184-45.937-126.894-78.454-199.27-94.188-29.44-6.661-59.438-9.743-89.549-11.484h-32.911c-39.368 2.125-78.746 7.429-116.669 18.243-91.965 25.477-176.015 78.648-238.74 150.538-44.099 50.186-77.778 109.527-98.432 173.123-14.961 45.932-22.676 94.464-23.931 143.002v17.664c1.736 90.23 28.273 179.779 76.908 255.918 51.533 81.249 127.283 146.97 215.296 186.245 58.189 26.44 121.682 40.238 185.472 43.136zM398.653 766.495c-31.263-39.368-51.722-85.98-68.321-133.074 23.255-5.888 47.186-8.397 70.927-11.965 29.435-2.99 58.865-5.693 88.489-5.98v214.999c-37.724-7.91-67.932-34.545-91.095-63.98zM529.213 615.476c39.962 0.671 80 4.050 119.475 10.419 28.375 3.735 54.022 10.273 78.37 19.458-57.916 43.267-82.912 98.179-124.025 140.731-20.060 21.038-45.056 38.216-73.82 44.39 0-71.7 0.097-143.304 0-214.999zM359.67 806.933c-69.868-24.32-133.555-66.104-183.736-120.53 36.669-19.4 76.042-33.679 116.183-44.006 20.941 63.206 50.376 125.645 97.756 173.507-10.419-2.028-20.265-5.596-30.203-8.97zM628.997 816.195c9.851-9.073 17.761-19.978 26.455-30.208 32.323-43.136 54.907-92.733 71.593-143.683 40.141 10.419 79.319 24.893 116.183 44.001-57.416 62.147-132.393 108.078-214.231 129.889zM149.494 655.519c-56.74-73.723-90.516-164.915-94.085-257.946 65.812 0.097 131.722 0 197.54 0 1.254 69.673 10.23 139.346 27.791 206.899-45.455 11.868-89.846 28.467-131.246 51.046zM738.243 604.375c17.562-67.548 26.445-137.129 27.694-206.802h197.627c-3.85 93.025-37.335 184.32-94.275 257.946-41.211-22.676-85.688-39.081-131.046-51.144zM292.506 397.768c65.715-0.384 131.436-0.102 197.248-0.195v178.33c-57.226 1.065-114.452 7.045-170.419 19.302-17.080-64.364-25.38-130.949-26.829-197.437zM529.213 576v-178.432c65.725 0.097 131.441-0.189 197.253 0.195-1.444 66.586-9.754 133.074-26.829 197.535-55.864-12.344-113.198-18.232-170.424-19.297zM55.404 358.011c3.666-93.030 37.345-184.315 94.188-258.043 41.303 22.584 85.791 39.091 131.236 51.149-17.562 67.548-26.44 137.124-27.791 206.894h-197.632zM292.506 357.914c1.449-66.586 9.651-133.176 26.829-197.632 55.875 12.442 113.193 18.237 170.322 19.302v178.427c-65.715-0.097-131.436 0.189-197.151-0.097zM529.213 358.011v-178.427c57.226-1.065 114.56-7.050 170.522-19.21 16.788 64.553 25.569 131.057 26.445 197.729-65.618-0.189-131.241-0.092-196.966-0.092zM765.937 358.011c-1.157-69.663-10.235-139.346-27.694-206.797 45.455-11.965 89.841-28.472 131.144-51.154 56.934 73.636 90.327 164.92 94.285 257.951h-197.734zM330.429 122.266c19.205-55.296 44.483-110.31 85.499-152.955 20.070-20.941 45.066-38.211 73.82-44.293 0.097 71.598 0 143.299 0 214.907-53.555-0.87-107.018-6.374-159.319-17.659zM529.213 140.109v-214.999c37.54 7.916 67.743 34.452 90.906 63.887 31.365 39.368 51.927 86.083 68.419 133.366-24.023 5.786-48.538 8.586-72.852 12.155-28.754 2.698-57.513 5.402-86.472 5.591zM175.841 69.284c57.318-62.147 132.301-108.175 214.129-129.797-47.38 47.959-77.005 110.397-97.848 173.696-74.499-19.064-139.641-51.243-196.081-94.255zM726.948 113.183c-21.043-63.396-50.565-125.926-98.048-173.891 81.746 21.908 156.815 67.743 214.134 129.889-36.562 19.4-75.945 33.587-116.086 44.001zM726.948 113.183z"  horiz-adv-x="1024" />

    
    <glyph glyph-name="left" unicode="&#58888;" d="M701.17021-127.681129a63.487136 63.487136 0 0 0-48.181348 22.320942l-383.282461 446.41884a63.77412 63.77412 0 0 0 0 83.225227l383.282461 446.41884a63.77412 63.77412 0 1 0 96.298921-83.225227l-347.568954-404.965662 347.568954-404.646792a63.77412 63.77412 0 0 0-6.664395-89.921509 62.658073 62.658073 0 0 0-41.453178-15.624659z"  horiz-adv-x="1024" />

    
    <glyph glyph-name="upload" unicode="&#58907;" d="M91.428571-6.692571h841.142858V-128H91.428571v121.307429z m239.908572 121.344v361.069714H91.428571L512 896l420.498286-420.278857h-239.908572v-361.069714H331.337143z"  horiz-adv-x="1024" />

    
    <glyph glyph-name="liebiao" unicode="&#59367;" d="M477.207589 481.513918c0-40.645722-33.257451-73.901127-73.901127-73.901127H140.642181c-40.646746 0-73.901127 33.257451-73.901127 73.901127V755.358843c0 40.646746 33.257451 73.901127 73.901127 73.901127h262.664281c40.645722 0 73.901127-33.257451 73.901127-73.901127v-273.844925zM477.207589 12.642181c0-40.646746-33.257451-73.901127-73.901127-73.901127H140.642181c-40.646746 0-73.901127 33.257451-73.901127 73.901127V286.480966c0 40.646746 33.257451 73.901127 73.901127 73.901127h262.664281c40.645722 0 73.901127-33.257451 73.901127-73.901127v-273.838785zM957.2569 481.513918c0-40.645722-33.257451-73.901127-73.901127-73.901127H620.678188c-40.646746 0-73.901127 33.257451-73.901127 73.901127V755.358843c0 40.646746 33.257451 73.901127 73.901127 73.901127h262.677585c40.646746 0 73.901127-33.257451 73.901127-73.901127v-273.844925zM957.258946 12.642181c0-40.646746-33.257451-73.901127-73.901127-73.901127H620.678188c-40.646746 0-73.901127 33.257451-73.901127 73.901127V286.480966c0 40.646746 33.257451 73.901127 73.901127 73.901127h262.679631c40.646746 0 73.901127-33.257451 73.901127-73.901127v-273.838785z"  horiz-adv-x="1024" />

    
    <glyph glyph-name="Requestforquotation" unicode="&#58937;" d="M475.721143 238.055619L780.190476 603.428571 391.241143 265.216 97.52381 359.619048 926.47619 774.095238l-146.285714-633.904762-304.469333 97.865143z m-9.752381-51.126857l103.619048-34.54781-103.619048-138.166857v172.714667z"  horiz-adv-x="1024" />

    
    <glyph glyph-name="my-request" unicode="&#58948;" d="M864.485 767.479h-37.179c-17.646 0-31.953-14.307-31.953-31.953s14.307-31.953 31.953-31.953h37.18c12.014 0 21.796-9.782 21.796-21.796v-693.759c0-12.013-9.782-21.78-21.796-21.78h-705.04c-12.013 0-21.796 9.767-21.796 21.78V681.777c0 12.014 9.783 21.796 21.796 21.796h29.863c17.645 0 31.952 14.307 31.952 31.953s-14.307 31.953-31.952 31.953h-29.863c-47.258 0-85.701-38.444-85.701-85.702v-693.759c0-47.243 38.443-85.686 85.701-85.686h705.039c47.258 0 85.702 38.443 85.702 85.686V681.777c0 47.258-38.444 85.702-85.702 85.702zM290.176 703.572h434.313c17.645 0 31.952 14.307 31.952 31.953s-14.307 31.953-31.952 31.953h-81.484c-8.659 63.11-62.363 112.054-127.801 112.054-65.453 0-119.158-48.944-127.817-112.053h-97.21c-17.646 0-31.953-14.307-31.953-31.953s14.306-31.954 31.952-31.954zM515.204 815.626c30.1 0 55.26-20.477 62.99-48.147H452.2c7.73 27.67 32.902 48.147 63.003 48.147zM287.258 501.839h449.463c17.646 0 31.953 14.307 31.953 31.953s-14.307 31.952-31.953 31.952H287.258c-17.645 0-31.952-14.307-31.952-31.952s14.307-31.953 31.952-31.953zM287.243 313.273H736.69c17.646 0 31.953 14.307 31.953 31.953s-14.307 31.953-31.953 31.953H287.243c-17.646 0-31.953-14.307-31.953-31.953s14.307-31.953 31.953-31.953zM287.243 125.114H736.69c17.646 0 31.953 14.307 31.953 31.953 0 17.645-14.307 31.952-31.953 31.952H287.243c-17.646 0-31.953-14.307-31.953-31.952 0-17.646 14.307-31.953 31.953-31.953z"  horiz-adv-x="1024" />

    
    <glyph glyph-name="up" unicode="&#58881;" d="M513 474.2l326.5-326.5c27-27 70.7-27 97.7 0s27 70.7 0 97.7L561.9 620.8c-27 27-70.7 27-97.7 0L88.7 245.4c-27-27-27-70.7 0-97.7s70.7-27 97.7 0L513 474.2z"  horiz-adv-x="1024" />

    
    <glyph glyph-name="list" unicode="&#58965;" d="M424.1 553.1h450.9c46.5 0 84.6 38 84.6 84.6s-38 84.6-84.6 84.6h-450.9c-46.5 0-84.6-38-84.6-84.6s38.1-84.6 84.6-84.6zM875.1 468.6h-451c-46.5 0-84.6-38-84.6-84.6s38-84.6 84.6-84.6h450.9c46.5 0 84.6 38 84.6 84.6s-38 84.6-84.5 84.6zM875.1 214.9h-451c-46.5 0-84.6-38-84.6-84.6s38-84.6 84.6-84.6h450.9c46.5 0 84.6 38 84.6 84.6s-38 84.6-84.5 84.6zM148.9 722.2c-46.5 0-84.6-38-84.6-84.6s38-84.6 84.6-84.6c46.5 0 84.6 38 84.6 84.6s-38 84.6-84.6 84.6zM148.9 468.6c-46.5 0-84.6-38-84.6-84.6s38-84.6 84.6-84.6c46.5 0 84.6 38 84.6 84.6s-38 84.6-84.6 84.6zM148.9 214.9c-46.5 0-84.6-38-84.6-84.6s38-84.6 84.6-84.6c46.5 0 84.6 38 84.6 84.6s-38 84.6-84.6 84.6z"  horiz-adv-x="1024" />

    
    <glyph glyph-name="postman" unicode="&#58925;" d="M194.502457-97.36521L16.036992-103.563411l91.476909 92.973026 86.988556-86.846068v0.071243zM1004.044604 364.008983A471.91826 471.91826 0 1 0 596.103186 892.13852a471.847016 471.847016 0 0 0 407.941418-528.129537M656.304112 558.219305c30.991009-32.985832 0.427462-110.926439 0.427462-110.926439S626.453002 337.078864 453.259571 194.235249l-32.34464 31.703446 219.858054 224.702625 4.274622 5.77074c5.841983 9.546656 10.686555 102.448439 11.256505 101.807245M453.259571 187.395854a7.12437 7.12437 0 0 0-4.773328 1.92358l-32.344639 31.774689a7.12437 7.12437 0 0 0 0 9.689143L635.85717 455.058429l3.633429 4.915816c3.633429 8.050538 7.694319 64.903009 9.047949 83.640102s1.424874 19.44953 5.841984 21.016891a7.12437 7.12437 0 0 0 7.12437-1.781093c32.843345-34.909412 4.417109-111.282657 1.923579-117.765833-2.351042-8.264269-35.621849-116.198472-205.609314-256.477315a7.12437 7.12437 0 0 0-4.559596-1.211143z m-22.655497 38.685328l23.082959-22.655496C619.043657 341.42473 650.10591 448.005303 650.10591 449.073959v0.712437c0 0.641193 19.44953 50.369295 10.900286 84.423783-3.918403-53.860236-6.768151-75.375833-10.40158-81.360304l-4.559597-6.198202-0.56995-0.712437z m214.443533 230.117147zM373.466628 272.674561L655.876649 559.002986c14.24874-17.027244 17.383462-35.621849 13.251328-61.483312-2.778504-18.095899-34.054488-54.287698-34.054488-54.287699l-213.731095-217.364524M420.914931 221.664073a4.274622 4.274622 0 0 0-3.063479 7.12437l213.731096 217.29328c8.691731 10.116605 31.133496 38.614085 33.270807 52.079144 3.84716 23.937883 1.139899 40.038959-9.332924 54.358942L376.530107 269.682326a4.281746 4.281746 0 1 0-6.126958 5.98447l282.410021 286.328425a4.203378 4.203378 0 0 0 3.205967 1.282387 4.274622 4.274622 0 0 0 3.134722-1.496118c14.676202-17.383462 18.737093-36.191799 14.24874-64.90301-2.920992-19.093311-33.769513-54.857648-35.0519-56.353765L423.97841 222.946459a4.274622 4.274622 0 0 0-3.063479-1.282386zM656.304112 558.005574l-282.837484-285.331013 0.56995 0.56995-70.317531 68.9639C450.124848 524.378548 544.73648 558.290549 544.73648 558.290549s61.625799 24.009126 105.511917 5.414521c3.348454-1.781092 4.844572-2.849748 6.055715-5.699496M373.466628 265.835166a7.12437 7.12437 0 0 0-6.411933 4.559597l-68.037732 67.111564a7.12437 7.12437 0 0 0-0.498706 9.119193C444.282864 528.011977 538.467034 563.063876 542.385437 564.702482c2.422286 0.926168 64.546791 24.721563 110.498977 5.272033a17.810925 17.810925 0 0 0 9.689143-9.261681 7.12437 7.12437 0 0 0-1.424874-7.480588L379.379855 268.684914l-0.356218-0.427462-0.56995-0.56995a7.12437 7.12437 0 0 0-4.987059-1.852336z m-60.4859 77.014438l60.913362-60.058438L646.543725 557.863086c-40.395177 16.742269-98.743766-5.699496-99.38496-5.913227s-93.400489-35.408118-234.178037-209.100255zM453.259571 194.235249c-67.467783-55.570085-153.815145-142.914859-271.224761-203.756978l26.360168-111.353901-110.641464 109.002859 275.998089 284.974794M208.394978-128a7.12437 7.12437 0 0 0-4.773327 1.994824l-110.641464 109.002858a7.12437 7.12437 0 0 0 0 9.6179l275.998088 284.974794a7.12437 7.12437 0 0 0 9.83163-9.475412l-271.22476-279.987735 88.555917-87.62975-20.731916 88.627162a7.12437 7.12437 0 0 0 3.490941 7.623075c90.621985 47.020841 163.860507 110.712708 222.137852 161.865683 16.884757 14.747446 32.914589 28.497479 47.94701 41.107615A7.12437 7.12437 0 0 0 457.747924 188.963215c-14.889933-12.253916-30.777278-26.146437-47.590791-40.893883-58.134858-50.796757-130.162237-113.989918-220.071785-161.22449l24.935294-106.438086a7.12437 7.12437 0 0 0-6.625664-8.406756zM305.642627 341.353486l68.536438-68.251463-158.374742-34.339463 88.342186 103.802069 1.496118-1.211143zM215.519348 231.994409a7.12437 7.12437 0 0 0-5.20079 11.256504l88.342187 103.802069a7.12437 7.12437 0 0 0 9.475411 0.854925l1.496118-1.211143 0.498706-0.498706 68.892657-68.108976a7.12437 7.12437 0 0 0-3.348454-11.541479l-158.374742-34.410707z m89.125867 100.73859l-70.531261-83.141396 126.386321 27.35758zM629.30275 640.790752a110.57022 110.57022 0 1 1 122.111699 97.67511 110.57022 110.57022 0 0 1-122.111699-97.67511M739.30302 511.198464a117.409615 117.409615 0 0 0-116.768422 130.233481 117.409615 117.409615 0 1 0 116.768422-130.375969zM635.85717 640.078315a103.730825 103.730825 0 1 1 114.559867 91.619396A103.873313 103.873313 0 0 1 635.85717 640.078315zM833.202215 567.480986c20.375698 29.779866 19.307042 74.378421 15.246152 87.558505-5.058303 16.17232-16.243563 42.746219-35.62185 56.140035l-103.873312-95.466556s79.650455-85.492438 81.787766-85.919901a105.084455 105.084455 0 0 1 42.746219 37.616673M790.242265 523.024918c-3.348454 0.427462-4.63084 0.641193-85.991144 88.057211a7.12437 7.12437 0 0 0 0.356218 9.689143l103.659582 95.466556a7.12437 7.12437 0 0 0 8.549243 0.56995c22.940471-16.029832 34.553194-47.092085 38.471598-59.702219 4.417109-14.24874 5.984471-61.198337-16.101076-93.471733-18.87958-27.072605-43.387412-40.608908-48.944421-40.608908z m-71.599917 92.616808c25.861463-27.713799 62.623211-66.826589 73.309766-77.4419a107.577985 107.577985 0 0 1 35.621849 33.413294c18.950824 27.642555 17.953412 70.175043 14.24874 81.716523-3.205966 10.40158-12.253916 34.838169-28.996186 49.229395z m114.631111-47.875765z m-23.581664 24.436588a7.12437 7.12437 0 0 0-7.12437 7.12437l2.70726 43.5299a7.12437 7.12437 0 0 0 13.108841 2.137311c0.498706-1.139899 11.185261-28.070017-3.27721-49.870589a7.12437 7.12437 0 0 0-5.485765-3.205967zM423.408461 225.867451l-114.41738-20.375698 69.035144 71.813648M308.991081 198.723602a7.12437 7.12437 0 0 0-4.915815 11.541479l69.035144 71.742404a7.12437 7.12437 0 1 0 9.83163-9.475411l-54.501429-56.638741L422.126074 232.635602a7.12437 7.12437 0 0 0 2.422286-13.465059l-114.346136-20.375698zM453.758276 197.15624a7.12437 7.12437 0 0 0-4.702084 1.852337L303.647803 335.938965a7.12437 7.12437 0 1 0 9.332925 9.974118L458.460361 208.982694a7.12437 7.12437 0 0 0-4.702085-11.826454z"  horiz-adv-x="1024" />

    
    <glyph glyph-name="mine" unicode="&#58920;" d="M512 894.971899c281.688865 0 510.832449-229.143583 510.832449-510.833816 0-281.688865-229.142216-510.832449-510.832449-510.832449C230.311135-126.694366 1.167551 102.449218 1.167551 384.138083 1.167551 665.826948 230.309768 894.971899 512 894.971899zM81.48251 384.136716c0-234.736619 190.293105-425.028358 425.029725-425.028358 234.736619 0 425.029725 190.291738 425.029725 425.028358 0 234.737987-190.293105 425.029725-425.029725 425.029725-234.736619 0-425.028358-190.291738-425.028358-425.029725zM754.612806 299.997821c-20.288598 11.805394-46.394446 4.82196-58.199839-15.465271-38.080769-65.849079-108.419589-106.256748-184.412967-106.423541-75.993378 0.166793-146.165405 40.741255-184.411599 106.423541-11.806761 20.287231-37.747183 27.270665-58.19984 15.630697-20.288598-11.805394-27.272032-37.747183-15.632064-58.19984 53.37788-91.956294 151.65317-148.827258 258.078077-148.992683 106.422174 0.165426 204.697463 56.869597 258.07671 148.992683a42.96015 42.96015 0 0 1 4.322948 32.259418c-2.660486 10.808737-9.810713 20.120438-19.621426 25.774996z"  horiz-adv-x="1024" />

    
    <glyph glyph-name="clear" unicode="&#59136;" d="M791.04 583.68H768V0h-76.8V583.68h-128V0h-76.8V583.68h-128V0h-76.8V583.68H128V-25.6c0-56.32 46.08-102.4 104.96-102.4h558.08c58.88 0 104.96 46.08 104.96 102.4V583.68c0 5.12-46.08 0-104.96 0M947.2 768h-230.4V829.44C716.8 867.84 652.8 896 614.4 896h-204.8c-38.4 0-102.4-28.16-102.4-66.56V768H76.8c-28.16 0-51.2-23.04-51.2-51.2s23.04-51.2 51.2-51.2h870.4c28.16 0 51.2 23.04 51.2 51.2s-23.04 51.2-51.2 51.2M614.4 768h-204.8V793.6h204.8v-25.6m0 0z"  horiz-adv-x="1024" />

    
    <glyph glyph-name="resize-vertical" unicode="&#59248;" d="M621.41 460.077l0.507 76.193c0 10.864 8.914 19.758 19.833 19.758h39.686c21.934 0 39.683 17.696 39.683 39.53 0 8.804-2.872 16.896-7.737 23.521h-0.031L547.994 818.177c-19.433 19.37-50.979 19.37-70.425 0L312.214 619.08c-4.869-6.626-7.742-14.717-7.742-23.522 0-21.847 17.77-39.53 39.687-39.53h39.687c10.904 0 19.83-8.893 19.83-19.758l0.508-76.193c0-21.651 17.684-39.175 39.503-39.175H581.91c21.833 0 39.499 17.539 39.499 39.176zM404.182 310.031l-0.508-76.193c0-10.864-8.913-19.758-19.833-19.758h-39.686c-21.933 0-39.683-17.696-39.683-39.53 0-8.804 2.873-16.896 7.738-23.522h0.031l165.356-199.097c19.433-19.37 50.98-19.37 70.426 0l165.355 199.098c4.868 6.626 7.741 14.717 7.741 23.522 0 21.847-17.77 39.53-39.686 39.53h-39.687c-10.904 0-19.831 8.893-19.831 19.758l-0.508 76.193c0 21.651-17.683 39.175-39.502 39.175H443.681c-21.833-0.001-39.5-17.539-39.5-39.176z"  horiz-adv-x="1024" />

    
    <glyph glyph-name="prev" unicode="&#58973;" d="M660.768 759.152a62.048 62.048 0 0 0 61.136-79.648 68.368 68.368 0 0 0-9.456-19.712c-9.808-13.792-24.512-23.568-35.04-36.624l-105.12-108.32-126.864-130.864 8.192-8.192L689.344 132.8a162.896 162.896 0 0 0 29.152-35.344 64.176 64.176 0 0 0-26.592-81.68 59.664 59.664 0 0 0-13.808-5.376 64.416 64.416 0 0 0-36.064 2.304 80.16 80.16 0 0 0-28.4 22.016l-28.896 29.456-223.232 230.464-35.04 36.112a138.448 138.448 0 0 0-19.952 24.592 54.8 54.8 0 0 0-6.912 32.272 74.784 74.784 0 0 0 16.128 38.832l15.344 15.36 52.432 54.032 156.8 161.6 52.432 54.032 17.392 17.92a95.664 95.664 0 0 0 26.096 23.04 58.304 58.304 0 0 0 16.112 5.632z"  horiz-adv-x="1024" />

    
    <glyph glyph-name="initial" unicode="&#59091;" d="M368.162133 275.268267l116.992 357.632a377.122133 377.122133 0 0 1 17.851734 86.596266h5.956266c3.089067-37.0176 8.362667-66.7648 15.872-89.2416l116.343467-354.986666H368.162133zM639.863467 896H383.368533L8.533333-128h236.663467l75.3664 234.666667h372.189867L769.4336-128h237.9776L639.863467 896z"  horiz-adv-x="1024" />

    
    <glyph glyph-name="fold" unicode="&#58910;" d="M1239.3472 470.2208a62.0544 62.0544 0 0 1-39.5776 22.5792v126.976c0 50.1248-40.6528 90.7264-90.6752 90.7264h-500.5312a10.0864 10.0864 0 0 0-3.1232 2.5088L585.216 796.16a99.4816 99.4816 0 0 1-36.352 55.3984A102.912 102.912 0 0 1 486.4 873.8304H116.2752C66.2016 873.8304 25.6 833.2288 25.6 783.2064v-817.3568c0-20.2752 6.8096-39.936 19.3536-55.808l-0.3072-0.6144 4.096-4.4544c17.4592-19.2 41.2672-29.7984 67.072-29.7984 4.7616 0 327.7312-0.512 607.0272-0.512 140.8 0 270.4384 0.2048 342.784 0.512 39.936 0.1024 75.2128 29.3888 83.9168 69.5296l49.7664 230.0928 52.5824 242.5344a63.0784 63.0784 0 0 1-12.544 52.8896z m-48.7424 14.336h0.512-0.512zM515.072 689.92l0.256-1.1776c5.0176-19.6608 16.6912-37.2224 33.8432-50.5344 17.5616-13.824 37.7856-21.0944 58.624-21.0944h498.7904V493.056H223.0784c-29.696 0-54.9376-20.224-61.2864-49.3568l-42.8544-197.632V780.544h367.616c0.4608 0 2.5088-0.5632 5.0176-2.5088a10.5984 10.5984 0 0 0 2.9696-3.3792l20.48-84.6336z m637.1328-289.9456l-45.9264-213.0944-47.2576-218.112H154.112l93.3376 431.2064h904.704z"  horiz-adv-x="1280" />

    
    <glyph glyph-name="size" unicode="&#58898;" d="M328.294005 894.97597c-46.859999-0.064-85.169998-40.703999-85.093997-90.316997 0 0-3.443-155.941995 0-247.756993-3.277-56.754998-178.303995-112.498997-178.239995-169.266995 0.154-129.842996 0-418.239988 0-418.239988 0.038-49.599999 38.437999-90.175997 85.299998-90.136997l239.550993 0.332 241.228993 0.41 236.594993 0.294c46.873999 0.039 85.183998 40.703999 85.106997 90.342997l-0.934 835.224976C951.743987 855.513971 913.343988 896.03797 866.48299 895.99997L328.294005 894.97597z m541.747985-948.069972l-232.652994-0.282-234.508993-0.397-260.594992-0.333c-12.839 0.768-26.687999 18.303999-26.687999 38.233999 0 0 0.153 234.457993 0 358.041989-0.077 54.360998 181.682995 125.989996 181.618994 180.351995-0.128 99.967997 0 281.752992 0 281.752992 0 9.997 10.304 28.300999 26.611 28.389999H869.06999c16.192-0.05 26.687999-16.127 26.687999-38.232999l0.896-809.253976c0.051-21.989999-11.008-38.105999-26.610999-38.271999zM803.429991 435.889983V755.199974H729.599994v-319.99999l73.829997 0.690999zM563.199999 755.199974v-319.99999h73.893997v319.99999H563.199999z m-166.399996 0v-319.103991l73.829998-0.895999v319.99999H396.800003z"  horiz-adv-x="1024" />

    
    <glyph glyph-name="copy" unicode="&#58912;" d="M735.806172 895.223065c-3.884674 0-383.805766 0.776935-383.805766 0.776935-67.593323 0-128.194234-62.15478-128.194234-128.194234l-37.292868-0.776934C118.919981 767.028832 63.757613 705.650986 63.757613 639.611533v-639.417299c0-66.039454 60.60091-128.194234 128.194234-128.194234h479.368741c67.593323 0 128.194234 62.15478 128.194233 128.194234h31.854325c67.593323 0 128.194234 62.15478 128.194234 128.194233V639.611533L735.806172 895.223065z m-63.70865-957.960546H192.728782c-33.408194 0-63.708649 31.07739-63.70865 63.708649V640.388467c0 47.39302 38.846737 63.708649 95.562975 63.70865v-575.70865c0-66.039454 60.60091-128.194234 128.194233-128.194233h383.805767c0-38.846737-25.638847-64.485584-64.485585-64.485585z m63.70865 287.465857H448.340315c-17.869499 0-31.854325 13.984825-31.854325 31.854325s13.984825 31.854325 31.854325 31.854325h287.465857c17.869499 0 31.854325-13.984825 31.854325-31.854325s-13.984825-31.854325-31.854325-31.854325z m0 160.048559H448.340315c-17.869499 0-31.854325 13.984825-31.854325 31.854324s13.984825 31.854325 31.854325 31.854325h287.465857c17.869499 0 31.854325-13.984825 31.854325-31.854325s-13.984825-31.854325-31.854325-31.854324z m63.708649 256.388467c-34.185129 0-63.708649 31.07739-63.708649 63.70865V831.514416l160.048558-191.125949H800.291756z"  horiz-adv-x="1024" />

    
    <glyph glyph-name="module" unicode="&#58893;" d="M358 423H115C51.5 423 0 474.5 0 538V781C0 844.5 51.5 896 115 896h243c63.5 0 115-51.5 115-115v-243c0-63.5-51.5-115-115-115zM358-128H115C51.5-128 0-76.5 0-13V230c0 63.5 51.5 115 115 115h243c63.5 0 115-51.5 115-115v-243c0-63.5-51.5-115-115-115zM701 421.4L550.3 572.1c-39.4 39.4-39.4 103.3 0 142.7L701 865.5c39.4 39.4 103.3 39.4 142.7 0l150.7-150.7c39.4-39.4 39.4-103.3 0-142.7L843.7 421.4c-39.4-39.4-103.3-39.4-142.7 0zM909-128H666c-63.5 0-115 51.5-115 115V230c0 63.5 51.5 115 115 115h243c63.5 0 115-51.5 115-115v-243c0-63.5-51.5-115-115-115z"  horiz-adv-x="1024" />

    
    <glyph glyph-name="loading" unicode="&#58916;" d="M858.88 142.592C858.88 139.4176 861.7984 136.5504 864.9216 136.5504 868.096 136.5504 870.9632 139.4176 870.9632 142.592 870.9632 145.7664 868.096 148.6336 864.9216 148.6336 861.7984 148.6336 858.88 145.7664 858.88 142.592L858.88 142.592ZM725.4528 4.9152C725.4528 1.792 726.784-1.3312 728.9856-3.584 731.2384-5.7856 734.3616-7.0656 737.4848-7.0656 740.6592-7.0656 743.7824-5.7856 745.984-3.584 748.2368-1.3312 749.5168 1.792 749.5168 4.9152 749.5168 8.0896 748.2368 11.2128 745.984 13.4144 743.7824 15.6672 740.6592 16.9472 737.4848 16.9472 734.3616 16.9472 731.2384 15.6672 728.9856 13.4144 726.784 11.2128 725.4528 8.0896 725.4528 4.9152L725.4528 4.9152ZM545.6384-65.9456C545.6384-70.656 547.584-75.3664 550.912-78.6944 554.2912-82.0224 558.9504-83.968 563.712-83.968 568.4224-83.968 573.1328-82.0224 576.4608-78.6944 579.84-75.3664 581.7856-70.656 581.7856-65.9456 581.7856-61.184 579.84-56.4736 576.4608-53.1456 573.1328-49.8176 568.4224-47.872 563.712-47.872 558.9504-47.872 554.2912-49.8176 550.912-53.1456 547.584-56.4736 545.6384-61.184 545.6384-65.9456L545.6384-65.9456ZM352.0512-56.4224C352.0512-62.72 354.6624-68.9664 359.0656-73.4208 363.52-77.8752 369.8176-80.4864 376.064-80.4864 382.3616-80.4864 388.6592-77.8752 393.0624-73.4208 397.5168-68.9664 400.128-62.72 400.128-56.4224 400.128-50.1248 397.5168-43.8784 393.0624-39.424 388.6592-34.9696 382.3616-32.4096 376.064-32.4096 369.8176-32.4096 363.52-34.9696 359.0656-39.424 354.6624-43.8784 352.0512-50.1248 352.0512-56.4224L352.0512-56.4224ZM180.3264 31.6928C180.3264 23.808 183.552 15.9744 189.1328 10.4448 194.7136 4.864 202.496 1.6384 210.3808 1.6384 218.2656 1.6384 226.0992 4.864 231.68 10.4448 237.2096 15.9744 240.4864 23.808 240.4864 31.6928 240.4864 39.5776 237.2096 47.4112 231.68 52.992 226.0992 58.5216 218.2656 61.7984 210.3808 61.7984 202.496 61.7984 194.7136 58.5216 189.1328 52.992 183.552 47.4112 180.3264 39.5776 180.3264 31.6928L180.3264 31.6928ZM61.3888 181.504C61.3888 172.0832 65.28 162.6624 71.936 155.9552 78.6432 149.2992 88.064 145.408 97.4848 145.408 106.9568 145.408 116.3776 149.2992 123.0336 155.9552 129.7408 162.6624 133.632 172.0832 133.632 181.504 133.632 190.976 129.7408 200.3968 123.0336 207.0528 116.3776 213.76 106.9568 217.6512 97.4848 217.6512 88.064 217.6512 78.6432 213.76 71.936 207.0528 65.28 200.3968 61.3888 190.976 61.3888 181.504L61.3888 181.504ZM16.7424 365.4656C16.7424 354.4576 21.2992 343.5008 29.0816 335.7184 36.864 327.936 47.8208 323.3792 58.8288 323.3792 69.888 323.3792 80.8448 327.936 88.6272 335.7184 96.4096 343.5008 100.9664 354.4576 100.9664 365.4656 100.9664 376.5248 96.4096 387.4816 88.6272 395.264 80.8448 403.0464 69.888 407.6032 58.8288 407.6032 47.8208 407.6032 36.864 403.0464 29.0816 395.264 21.2992 387.4816 16.7424 376.5248 16.7424 365.4656L16.7424 365.4656ZM53.4528 548.2496C53.4528 535.6544 58.6752 523.1104 67.584 514.2016 76.4928 505.2928 88.9856 500.1216 101.632 500.1216 114.2272 500.1216 126.72 505.2928 135.68 514.2016 144.5888 523.1104 149.76 535.6544 149.76 548.2496 149.76 560.8448 144.5888 573.3888 135.68 582.2976 126.72 591.2064 114.2272 596.3776 101.632 596.3776 88.9856 596.3776 76.4928 591.2064 67.584 582.2976 58.6752 573.3888 53.4528 560.8448 53.4528 548.2496L53.4528 548.2496ZM163.6352 695.6032C163.6352 681.4208 169.472 667.3408 179.5072 657.3056 189.5424 647.2704 203.6224 641.4336 217.856 641.4336 232.0384 641.4336 246.1184 647.2704 256.1536 657.3056 266.1888 667.3408 272.0256 681.4208 272.0256 695.6032 272.0256 709.7856 266.1888 723.9168 256.1536 733.952 246.1184 743.936 232.0384 749.824 217.856 749.824 203.6224 749.824 189.5424 743.936 179.5072 733.952 169.472 723.9168 163.6352 709.7856 163.6352 695.6032L163.6352 695.6032ZM325.4272 780.032C325.4272 764.2624 331.8784 748.5952 343.04 737.4848 354.2016 726.3232 369.8176 719.872 385.5872 719.872 401.3568 719.872 416.9728 726.3232 428.1344 737.4848 439.296 748.5952 445.7472 764.2624 445.7472 780.032 445.7472 795.7504 439.296 811.4176 428.1344 822.5792 416.9728 833.6896 401.3568 840.192 385.5872 840.192 369.8176 840.192 354.2016 833.6896 343.04 822.5792 331.8784 811.4176 325.4272 795.7504 325.4272 780.032L325.4272 780.032ZM507.136 785.2544C507.136 767.9488 514.2528 750.6944 526.4896 738.4576 538.7776 726.1696 555.9808 719.0528 573.3376 719.0528 590.6432 719.0528 607.8976 726.1696 620.1344 738.4576 632.4224 750.6944 639.5392 767.9488 639.5392 785.2544 639.5392 802.6112 632.4224 819.8144 620.1344 832.1024 607.8976 844.3392 590.6432 851.456 573.3376 851.456 555.9808 851.456 538.7776 844.3392 526.4896 832.1024 514.2528 819.8144 507.136 802.6112 507.136 785.2544L507.136 785.2544ZM673.4848 710.4C673.4848 691.5072 681.2672 672.7168 694.6304 659.3536 707.9936 645.9904 726.784 638.208 745.6768 638.208 764.5696 638.208 783.36 645.9904 796.7232 659.3536 810.0864 672.7168 817.8688 691.5072 817.8688 710.4 817.8688 729.2928 810.0864 748.0832 796.7232 761.4464 783.36 774.8096 764.5696 782.592 745.6768 782.592 726.784 782.592 707.9936 774.8096 694.6304 761.4464 681.2672 748.0832 673.4848 729.2928 673.4848 710.4L673.4848 710.4ZM791.7056 569.8048C791.7056 549.3248 800.1024 528.9984 814.592 514.5088 829.0816 500.0192 849.4592 491.5712 869.9392 491.5712 890.4192 491.5712 910.7456 500.0192 925.2352 514.5088 939.7248 528.9984 948.1728 549.3248 948.1728 569.8048 948.1728 590.336 939.7248 610.6624 925.2352 625.152 910.7456 639.6416 890.4192 648.0384 869.9392 648.0384 849.4592 648.0384 829.0816 639.6416 814.592 625.152 800.1024 610.6624 791.7056 590.336 791.7056 569.8048L791.7056 569.8048ZM838.7072 387.7376C838.7072 365.6704 847.7696 343.7568 863.3856 328.1408 879.0016 312.5248 900.9152 303.4624 922.9824 303.4624 945.0496 303.4624 966.9632 312.5248 982.5792 328.1408 998.1952 343.7568 1007.2576 365.6704 1007.2576 387.7376 1007.2576 409.8048 998.1952 431.7184 982.5792 447.3344 966.9632 462.8992 945.0496 472.0128 922.9824 472.0128 900.9152 472.0128 879.0016 462.8992 863.3856 447.3344 847.7696 431.7184 838.7072 409.8048 838.7072 387.7376L838.7072 387.7376Z"  horiz-adv-x="1024" />

    
    <glyph glyph-name="format_wipe" unicode="&#58882;" d="M730.843867 127.040719l-373.47989 373.479891 37.347989 37.347989 373.47989-373.479891-37.347989-37.347989z m340.582963 269.161329L598.38641-76.838371h-71.216987L1023.232576 419.224781V434.777917a51.161629 51.161629 0 0 1 0 102.323257v13.81364L781.238071 792.909318H767.424432c0 6.139395-1.534849 11.869498-3.478991 17.292631l-30.390008 30.390007A51.059306 51.059306 0 0 1 716.262803 844.070947a51.161629 51.161629 0 0 1-51.161629-51.161629h-15.553135l-613.939545-613.939545H51.161629v-64.975269L241.994504-76.838371H167.298526l-153.484886 153.484886H0V214.578266L626.525306 841.103572A101.913965 101.913965 0 0 0 716.262803 895.232576c10.743942 0 20.925106-2.097627 30.645816-5.218487l5.934748 5.985911 15.399651-15.39965c14.734549-8.748639 26.962178-20.976268 35.710817-35.710817L1074.394204 574.449163v-0.358131c30.441169-17.753085 51.161629-50.394204 51.161629-88.151487 0-38.985161-22.050662-72.444866-54.129003-89.737497zM1074.394204-128H51.161629v51.161629h1023.232575v-51.161629z"  horiz-adv-x="1126" />

    


  </font>
</defs>
</svg>
